<?xml version="1.0" encoding="UTF-8"?>
<svg id="Calque_1" data-name="Calque 1" xmlns="http://www.w3.org/2000/svg" version="1.1" viewBox="0 0 300 150">
  <defs>
    <style>
      .cls-1 {
        fill: #000;
      }

      .cls-1, .cls-2 {
        stroke-width: 0px;
      }

      .cls-2 {
        fill: #ffc107;
      }
    </style>
  </defs>
  <path class="cls-2" d="M293.8,43.8h-23.1q-.6-.6-1.3-1.3c5.6-4.4,9.4-11.2,9.4-18.7C278.7,10.6,268.1,0,255,0h-43.8v66.3l-1.9-5.6-18.8-56.2L188.8,0h-35l-1.3,4.4-5,15.6V0H56.9C45,0,36.3,9.4,36.3,21.3s1.9,8.1,3.1,10h0c1.2,1.3,6.2,7.5,9.4,11.9H0v25h61.3c11.9,0,21.3-9.4,21.3-21.2s-1.9-8.1-3.1-10l-9.4-12.5h21.9v43.7h28.8V24.4h25l-11.2,35.6-3.1,8.8h28.8l1.3-4.4,3.1-8.1h15l3.1,8.1,1.3,4.4h56.2v-13.1c3.7,3.8,7.5,6.9,10,9.4,1.3.6,3.7,3.8,8.8,3.8h41.2v-25h-6.2ZM96.9,89.4l-18.8,56.2-1.2,4.4h-19.4l-1.2-4.4-6.2-16.9-5.6,16.9-1.9,4.4h-20l-1.3-4.4L2.5,89.4l-2.5-8.1h29.4l1.2,4.4,1.9,6.9,2.5-6.9,1.9-4.4h26.2l1.2,4.4,2.5,6.9,1.9-6.9,1.2-4.4h30l-3.1,8.1ZM258.1,81.3c-11.9,0-21.3,9.4-21.3,21.2s1.9,8.1,3.1,10h0c1.3,1.3,6.2,7.5,10,11.9h-28.7l-.6-.6c5.6-4.4,9.4-11.2,9.4-18.7,0-13.1-10.6-23.7-23.7-23.7h-43.8v68.7l-2.5-8.1-18.8-56.2-1.3-4.4h-35l-1.3,4.4-18.1,56.2-3.1,8.1h28.1l1.3-4.4,3.1-8.1h15l3.1,8.1,1.3,4.4h57.5v-13.1c3.8,3.7,7.5,6.9,10.6,9.4,2.5,2.5,5.6,3.7,9.4,3.7h51.9c11.9,0,21.3-9.4,21.3-21.3s-1.9-8.1-3.1-10l-9.4-12.5h27.5v-25h-6.2s-35.6,0-35.6,0Z"/>
  <path class="cls-1" d="M140.6,6.3H56.2c-8.1,0-14.4,6.2-14.4,15s1.2,5,1.9,6.2c1.9,2.5,13.1,16.3,13.1,16.3,0,.6.6,1.3.6,1.9.6,2.5-1.3,4.4-3.8,4.4H6.3v12.5h55c8.1,0,15-6.2,15-15s-1.2-5-1.9-6.2l-11.9-16.3c0-.6-.6-1.2-.6-1.9,0-2.5,1.9-4.4,4.4-4.4h32.5v43.7h16.3V18.8h26.9V6.3h-1.3ZM184.4,6.3h-26.3l-18.1,56.2h15.6l4.4-12.5h23.7l4.4,12.5h15.6l-19.4-56.2ZM163.8,37.5l7.5-22.5,7.5,22.5h-15ZM270.6,50c-2.5,0-3.7-1.3-5-2.5-3.1-3.8-6.9-6.9-6.9-6.9,7.5-1.9,13.1-8.7,13.1-16.9s-8.1-17.5-17.5-17.5h-37.5v56.2h16.9v-21.2s14.4,13.8,20.6,19.4c.6.6,2.5,1.9,5,1.9h34.4v-12.5h-23.1ZM233.8,18.8h16.2c3.7,0,6.9,2.5,6.9,6.2s-3.1,6.2-6.9,6.2h-16.2v-12.5ZM75,87.5l-8.1,24.4-8.1-24.4h-17.5l-8.8,24.4-8.1-24.4h-15.6l18.8,56.2h10.6l11.9-34.4,11.9,34.4h10.6l18.8-56.2h-16.2ZM266.9,100h26.9v-12.5h-35.6c-8.1,0-15,6.2-15,15s1.3,5,1.9,6.2c1.9,1.9,13.8,15.6,13.8,15.6,0,.6.6,1.2.6,1.9,0,2.5-1.9,4.4-3.7,4.4h-33.1c-2.5,0-3.7-1.3-5-2.5-3.1-3.8-6.2-6.9-6.2-6.9,7.5-1.9,13.1-8.7,13.1-16.9s-8.1-17.5-17.5-17.5h-38.1v56.3h16.9v-21.2s14.4,13.7,20.6,19.4c.6.6,2.5,1.9,5,1.9h51.9c8.1,0,15-5.6,15-15s-1.3-5-1.9-6.2l-12.5-15.6c0-.6-.6-1.3-.6-1.9,0-2.5,1.9-4.4,3.7-4.4ZM201.9,112.5h-16.3v-12.5h16.3c3.7,0,6.9,2.5,6.9,6.2,0,3.8-3.1,6.2-6.9,6.2ZM135.6,87.5h-26.3l-18.1,56.2h15l4.4-12.5h23.7l4.4,12.5h15.6l-18.8-56.2ZM115,118.8l7.5-22.5,7.5,22.5h-15Z"/>
</svg>